<svg xmlns="http://www.w3.org/2000/svg" xmlns:xlink="http://www.w3.org/1999/xlink" viewBox="0 0 127.44 79.93"><defs><style>.cls-1{fill:url(#linear-gradient);}.cls-2{fill:url(#linear-gradient-2);}</style><linearGradient id="linear-gradient" y1="39.97" x2="61.37" y2="39.97" gradientUnits="userSpaceOnUse"><stop offset="0" stop-color="#0353a4"/><stop offset="0.52" stop-color="#002855"/></linearGradient><linearGradient id="linear-gradient-2" x1="48.52" y1="39.97" x2="127.44" y2="39.97" gradientUnits="userSpaceOnUse"><stop offset="0" stop-color="#0353a4"/><stop offset="0.51" stop-color="#002855"/></linearGradient></defs><title>Asset 5</title><g id="Layer_2" data-name="Layer 2"><g id="Layer_3" data-name="Layer 3"><path class="cls-1" d="M5,79.93a5,5,0,0,1-5-5.37l1.29-17,1.23-26L3.29,8V5a5,5,0,0,1,5-5Q20.47.1,33.47.1L44.72,0,56.36,0a5,5,0,0,1,5,5.27l-.13,2.4A5,5,0,0,1,56,12.38l-.59,0q-2.3-.11-6.33-.17t-8.26-.06c-6.1,0-10,0-11.81,0-.9,0-2,0-3.4.07A5,5,0,0,0,20.72,17L20.22,28a5,5,0,0,0,4.89,5.22q5.51.07,11,.08,4.38,0,13.48-.21a5,5,0,0,1,5.1,5.32c-.05.82-.11,1.67-.16,2.54a5,5,0,0,1-5,4.72q-11.22-.12-13.12-.12-5.29,0-12.57.2A5,5,0,0,0,19,50.55l-.52,12.12a5,5,0,0,0,4.94,5.21h1.28q2.81,0,12.89-.12l12.72-.23,2.84-.14a5,5,0,0,1,5.22,5.31l-.15,2.5a5,5,0,0,1-5,4.72q-12.4-.09-22.68-.09l-19.28.06Z"/><path class="cls-2" d="M54.46,79.86a5.86,5.86,0,0,1-5.93-6.23l1-14.71q1.13-17.22,1.6-32t.47-20.54V6A5.85,5.85,0,0,1,57.48.07c1.59,0,2.85,0,3.79,0,.59,0,1.44,0,2.54,0a5.86,5.86,0,0,1,5.91,6.21L68.55,26.4v.07a5.87,5.87,0,0,0,5.86,6h28.26a5.86,5.86,0,0,0,5.85-5.59L109,16.65q.24-8.16.24-10.74h0A5.86,5.86,0,0,1,115.15.05l3.86,0,2.49,0a5.87,5.87,0,0,1,5.93,6.21l-1.56,25.63-.82,23.67-.22,13.89c0,1.75,0,3.29-.06,4.63a5.84,5.84,0,0,1-5.93,5.78l-3.27,0-3.28,0a5.85,5.85,0,0,1-5.91-6.31q.84-10.85,1.23-22.4a5.87,5.87,0,0,0-5.86-6.07H73.41a5.86,5.86,0,0,0-5.85,5.64L67,66.66l-.14,7.47a5.85,5.85,0,0,1-5.92,5.76l-3.8,0Z"/></g></g></svg>