<svg xmlns="http://www.w3.org/2000/svg" xmlns:xlink="http://www.w3.org/1999/xlink" viewBox="0 0 466.77 80.97"><defs><style>.cls-1{fill:url(#linear-gradient);}.cls-2{fill:#071013;}.cls-3{fill:url(#linear-gradient-2);}</style><linearGradient id="linear-gradient" y1="39.97" x2="61.37" y2="39.97" gradientUnits="userSpaceOnUse"><stop offset="0" stop-color="#0353a4"/><stop offset="0.52" stop-color="#002855"/></linearGradient><linearGradient id="linear-gradient-2" x1="276.81" y1="39.97" x2="355.72" y2="39.97" gradientUnits="userSpaceOnUse"><stop offset="0" stop-color="#0353a4"/><stop offset="0.51" stop-color="#002855"/></linearGradient></defs><title>Asset 1</title><g id="Layer_2" data-name="Layer 2"><g id="Layer_2-2" data-name="Layer 2"><path class="cls-1" d="M5,79.93a5,5,0,0,1-5-5.37l1.29-17,1.23-26L3.29,8V5a5,5,0,0,1,5-5Q20.47.1,33.47.1L44.72,0,56.36,0a5,5,0,0,1,5,5.27l-.13,2.4A5,5,0,0,1,56,12.38l-.59,0q-2.3-.11-6.33-.17t-8.26-.06c-6.1,0-10,0-11.81,0-.9,0-2,0-3.4.07A5,5,0,0,0,20.72,17L20.22,28a5,5,0,0,0,4.89,5.22q5.51.07,11,.08,4.38,0,13.48-.21a5,5,0,0,1,5.1,5.32c-.05.82-.11,1.67-.16,2.54a5,5,0,0,1-5,4.72q-11.22-.12-13.12-.12-5.29,0-12.57.2A5,5,0,0,0,19,50.55l-.52,12.12a5,5,0,0,0,4.94,5.21h1.28q2.81,0,12.89-.12l12.72-.23,2.84-.14a5,5,0,0,1,5.22,5.31l-.15,2.5a5,5,0,0,1-5,4.72q-12.4-.09-22.68-.09l-19.28.06Z"/><path class="cls-2" d="M100.19,71.36a2.39,2.39,0,0,1,2.91,2.76v0c-.21,1.07-.42,2.32-.64,3.77a2.4,2.4,0,0,1-1.87,2,52,52,0,0,1-10.22,1,33.38,33.38,0,0,1-6.55-.63A18.23,18.23,0,0,1,78,78.09a17,17,0,0,1-4.77-4.26,18.17,18.17,0,0,1-3.09-6.4,29.49,29.49,0,0,1-1-7.75,30.44,30.44,0,0,1,1.71-10.16,19.56,19.56,0,0,1,5-8A17.25,17.25,0,0,1,83,37.36,33.41,33.41,0,0,1,92,36.25a52.07,52.07,0,0,1,5.63.31,47.59,47.59,0,0,1,5.08.87,2.4,2.4,0,0,1,1.88,2.18l.27,4a2.39,2.39,0,0,1-3,2.47,29.8,29.8,0,0,0-7.65-1.14,15,15,0,0,0-5.38,1,10.87,10.87,0,0,0-4.36,3,12.23,12.23,0,0,0-2.6,4.81A20.21,20.21,0,0,0,81,59.3a17.55,17.55,0,0,0,1.24,6.91,8.94,8.94,0,0,0,4.25,4.51,14.43,14.43,0,0,0,6.88,1.6A27,27,0,0,0,98,71.84Q99.07,71.64,100.19,71.36Z"/><path class="cls-2" d="M115.7,79.9a3.12,3.12,0,0,1-3.15-3.36l.57-7.5,1-21,.46-17.93c0-1.65,0-3.11.07-4.38a3.11,3.11,0,0,1,3.17-3.08l3.09,0,2.36,0A3.12,3.12,0,0,1,126.39,26l-.66,10.26-1,21.75-.41,16.25,0,2.52a3.12,3.12,0,0,1-3.18,3.09l-2.71,0ZM126.87,58a3.11,3.11,0,0,1,.21-3.67l7.12-8.65c.73-.9,1.6-2,2.61-3.32.8-1,1.75-2.29,2.88-3.79a3.14,3.14,0,0,1,2.56-1.25c2.1,0,3.69.05,4.77.05h.06a3.12,3.12,0,0,1,2.36,5.17l-9.25,10.6-1,1.25a3.12,3.12,0,0,0-.18,3.72q3.38,5,12.05,16.83a3.13,3.13,0,0,1-2.53,5h-.24c-1.37,0-3,0-4.89.05a3.16,3.16,0,0,1-2.73-1.5c-1.2-2-2.22-3.59-3-4.88-1-1.61-2-3-2.83-4.22l-7.16-10.21Z"/><path class="cls-2" d="M165.24,45.68a1.55,1.55,0,0,1-2-1.73c.12-.66.2-1.18.24-1.57.08-.63.2-1.51.37-2.64a1.58,1.58,0,0,1,1.19-1.3c3.39-.76,6.4-1.31,9.05-1.65a68.72,68.72,0,0,1,8.44-.54A31.5,31.5,0,0,1,191,37.32,12.63,12.63,0,0,1,197,40.74q2.17,2.35,2.18,6.76,0,2.4-.67,12.2-.61,9.08-.77,18.7a1.55,1.55,0,0,1-1.58,1.53c-1.54,0-3-.05-4.33-.05s-2.67,0-4.25,0A1.54,1.54,0,0,1,186,78.24c.29-3,.53-6.32.72-10l.4-7.54a1.55,1.55,0,0,0-2.27-1.45h0A15.41,15.41,0,0,1,183,60c-.7.23-1.93.6-3.7,1.09s-3.18.91-4.24,1.28a17.44,17.44,0,0,0-2.88,1.24A9.65,9.65,0,0,0,170,65.16,5.74,5.74,0,0,0,168.7,67a5.21,5.21,0,0,0-.4,2,4.85,4.85,0,0,0,2.45,4.29,5,5,0,0,0,1,.47,11.62,11.62,0,0,0,3.86.58,20.31,20.31,0,0,0,2.83-.21c.38-.06.8-.14,1.27-.25a1.55,1.55,0,0,1,1.86,1.93c-.29,1-.6,2.13-.93,3.41a1.55,1.55,0,0,1-1.27,1.16c-1.51.24-2.75.39-3.72.46-1.18.09-2.27.13-3.28.13a22.7,22.7,0,0,1-8.69-1.43,9.66,9.66,0,0,1-5-4.53A13.53,13.53,0,0,1,157,68.75a10.69,10.69,0,0,1,2.48-6.8,16.08,16.08,0,0,1,3.15-2.84,23.11,23.11,0,0,1,5.59-2.64,80.74,80.74,0,0,1,9.66-2.58c1.06-.23,2.17-.5,3.32-.82a20.71,20.71,0,0,0,2.75-1,6.43,6.43,0,0,0,1.79-1.19,5.29,5.29,0,0,0,1.11-1.54,4,4,0,0,0-.71-4.41,5.71,5.71,0,0,0-2.78-1.57,14.7,14.7,0,0,0-3.76-.44A43.88,43.88,0,0,0,165.24,45.68Z"/><path class="cls-2" d="M209.78,79.93a1.47,1.47,0,0,1-1.49-1.55L209.41,60l.34-11.59c.05-2.38.08-4.78.08-7.18,0-.32,0-1.14-.05-2.46a1.47,1.47,0,0,1,1.5-1.5c1.84,0,3.24.05,4.22.05s2.47,0,4.12-.05a1.46,1.46,0,0,1,1.5,1.51h0a1.45,1.45,0,0,0,2.5,1.06l.07-.06a12,12,0,0,1,5.67-3.13,14.83,14.83,0,0,1,3.53-.42,15.27,15.27,0,0,1,2.21.17,1.48,1.48,0,0,1,1.24,1.42c0,1.94.11,4.2.25,6.8a1.47,1.47,0,0,1-1.74,1.52,14.85,14.85,0,0,0-2.64-.25,11.71,11.71,0,0,0-4.3.73,9.64,9.64,0,0,0-3.36,2.23,12.17,12.17,0,0,0-2.46,3.67,16.68,16.68,0,0,0-1.17,4.58c-.22,1.45-.4,4-.56,7.47s-.22,7-.22,10.42c0,.95,0,2.09.07,3.4a1.48,1.48,0,0,1-1.5,1.52c-1.53,0-3-.05-4.29-.05S211.53,79.9,209.78,79.93Z"/><path class="cls-2" d="M267,75.38c-.14.75-.29,1.59-.45,2.5a2.84,2.84,0,0,1-2.2,2.28c-1.49.3-2.71.5-3.68.6a36.44,36.44,0,0,1-3.77.21,24.1,24.1,0,0,1-5.57-.59,8.69,8.69,0,0,1-4.05-2.08,7.45,7.45,0,0,1-2.16-3.48,15,15,0,0,1-.57-4.14c0-.36,0-.85,0-1.47s.14-2.6.34-6l.8-14.49a2.82,2.82,0,0,0-2.82-3h-.06a2.82,2.82,0,0,1-2.82-3c0-.73.07-1.54.1-2.43A2.83,2.83,0,0,1,243,37.68h1A2.83,2.83,0,0,0,246.77,35c.06-1,.13-2.12.19-3.43A2.82,2.82,0,0,1,249.24,29l2.78-.54c.54-.1,1.33-.28,2.39-.52a2.83,2.83,0,0,1,3.46,2.87c-.06,1.37-.1,2.7-.13,4a2.82,2.82,0,0,0,2.82,2.89h4.85a2.82,2.82,0,0,1,2.82,3c0,.9-.08,1.71-.1,2.43a2.82,2.82,0,0,1-2.82,2.72h-5.26a2.83,2.83,0,0,0-2.82,2.69q-.75,14.63-.75,17.09a11.23,11.23,0,0,0,.57,4,3.77,3.77,0,0,0,1.83,2.06,5.91,5.91,0,0,0,2.69.63,15.57,15.57,0,0,0,2.2-.17h0A2.81,2.81,0,0,1,267,75.38Z"/><path class="cls-3" d="M282.75,79.87a5.87,5.87,0,0,1-5.93-6.24l.95-14.7q1.13-17.24,1.6-32t.48-20.53V6A5.86,5.86,0,0,1,285.77.07l3.78,0,2.55,0A5.86,5.86,0,0,1,298,6.28l-1.18,20.13v.06a5.86,5.86,0,0,0,5.86,6H331a5.86,5.86,0,0,0,5.85-5.59l.47-10.26q.24-8.16.24-10.74h0A5.86,5.86,0,0,1,343.44.05L347.3.1l2.48,0a5.87,5.87,0,0,1,5.93,6.22l-1.55,25.63-.82,23.67-.22,13.88c0,1.76,0,3.3-.06,4.63a5.86,5.86,0,0,1-5.93,5.79l-3.27,0-3.29,0a5.84,5.84,0,0,1-5.9-6.31q.84-10.85,1.23-22.39A5.87,5.87,0,0,0,330,45.1H301.7a5.87,5.87,0,0,0-5.86,5.63l-.61,15.93-.13,7.48a5.85,5.85,0,0,1-5.93,5.75l-3.79,0Z"/><path class="cls-2" d="M410.1,78.82A1.14,1.14,0,0,1,409,79.94c-1.92,0-3.43-.06-4.54-.06-1.34,0-2.82,0-4.45.05a1.13,1.13,0,0,1-1.17-1.14l0-2.27a1.13,1.13,0,0,0-2-.72l0,0a13,13,0,0,1-5.42,3.73,24.22,24.22,0,0,1-3.84,1A24.9,24.9,0,0,1,383,81a22.37,22.37,0,0,1-8.19-1.37,12.05,12.05,0,0,1-5.52-4.13c-1.36-1.85-2-4.49-2-7.94v-.88l.68-10.83.64-14.28c0-.88,0-1.92,0-3.13a1.14,1.14,0,0,1,1.16-1.13c2.11,0,3.81.06,5.09.06s2.81,0,4.54-.05a1.13,1.13,0,0,1,1.16,1.21L379.2,56.4c-.08,1.49-.15,2.74-.19,3.76s-.06,1.76-.06,2.21a12.25,12.25,0,0,0,.9,5,6.12,6.12,0,0,0,3.15,3,11.15,11.15,0,0,0,4.8,1,11.78,11.78,0,0,0,4.61-.92,9.77,9.77,0,0,0,3.38-2.36,12,12,0,0,0,2.37-4.07A21.34,21.34,0,0,0,399.25,59q.3-2.31.55-7.94.31-6.26.45-12.68a1.14,1.14,0,0,1,1.16-1.11q3.33.06,5.22.06c1.31,0,2.75,0,4.32-.05a1.14,1.14,0,0,1,1.17,1.22q-.47,5.67-.95,13.76-.54,9-.75,14.86Q410.23,72.52,410.1,78.82Z"/><path class="cls-2" d="M421.79,79.94a1.13,1.13,0,0,1-1.15-1.21q.72-8.19,1.56-26.5.85-18.66.95-28.46a1.11,1.11,0,0,1,1.14-1.1c2,0,3.79.06,5.32.06s2.95,0,4.54-.06a1.12,1.12,0,0,1,1.14,1.25q-.56,5.08-.91,12.25a1.13,1.13,0,0,0,1.33,1.16c2.09-.39,3.81-.66,5.15-.81a43.84,43.84,0,0,1,4.83-.27,26.45,26.45,0,0,1,11.11,2.08A16,16,0,0,1,464,45.21a23.28,23.28,0,0,1,2.73,11.66,32,32,0,0,1-1.37,9.3,24.58,24.58,0,0,1-4.07,8,16.14,16.14,0,0,1-6.56,5.14,21.33,21.33,0,0,1-8.4,1.64,19,19,0,0,1-4-.4,15.45,15.45,0,0,1-3.44-1.15,14.68,14.68,0,0,1-2.82-1.77,14,14,0,0,1-2.05-2l0,0a1.11,1.11,0,0,0-2,.65L432,78.85a1.12,1.12,0,0,1-1.14,1.09c-1.78,0-3.21-.06-4.31-.06Q425.21,79.88,421.79,79.94Zm12.53-34a1.11,1.11,0,0,0-.82,1l-.3,6.37c-.09,1.54-.13,3-.13,4.49A25.34,25.34,0,0,0,434.14,66a8.86,8.86,0,0,0,3.62,4.64,10.4,10.4,0,0,0,5.74,1.64,9.89,9.89,0,0,0,6-1.87A11.58,11.58,0,0,0,453.44,65a21.54,21.54,0,0,0,1.36-7.6,13.52,13.52,0,0,0-3.06-9.24q-3-3.48-9-3.48a27.09,27.09,0,0,0-4,.31A39,39,0,0,0,434.32,45.94Z"/></g></g></svg>